# xmcd
#
# Track frame offsets:
#	150
#	5197
#	19204
#	27412
#	36317
#	44710
#	56995
#	65932
#	70103
#	72821
#	81149
#	94825
#	102459
#	129900
#	140443
#	150940
#	159327
#	172319
#	182839
#	193332
#	197605
#	207980
#	219730
#	239369
#	252843
# Disc length: 3430 seconds
# Revision: 4
# Processed by: cddbd v1.5.2PL0 Copyright (c) Steve Scherf et al.
#
# Submitted via: libkcddb 0.21
#
DISCID=7f0d6419
DTITLE=Weihnacht - Die schönsten Weihnachtslieder
DYEAR=1997
DGENRE=Other
TTITLE0=Glockengeläute Des Limburger Doms
TTITLE1=Lk 2, 1-21 - Jesu Geburt - Die Weihnachtsgeschichte
TTITLE2=Dresdner Kreuzchor - Es Ist Ein Ros' entsprungen
TTITLE3=Berliner Mozartchor - Oh Du Fröhliche
TTITLE4=Berliner Mozartchor - In Dulci Jubilo
TTITLE5=Stuttgarter Hymnus-Chorknaben - Uns Ist Ein Kindlein Heut' Geboren
TTITLE6=Stuttgarter Hymnus-Chorknabben - O Jesulein Süss
TTITLE7=Berliner Mozartchor - Süsser Die Glocken Nie Klingen
TTITLE8=Berliner Mozartchor - Kling, Glöckchen, Klingeling
TTITLE9=Berliner Mozartchor - Ihr Kinderlein Kommet
TTITLE10=Radi-Sinfonieorchester Stuttgart - Der Messias-Pastorale
TTITLE11=Stuttgarter Hymnus-Chorknabben - Ich Steh' An Deiner Krippen Hier
TTITLE12=Radio-Sinfonieorchester Stuttgart - Weihnachtsoratorium-Pastorale
TTITLE13=Berliner Mozartchor - Schlaf Wohl, Du Himmelsknabe
TTITLE14=Stuttgarter Hymnus-Chorknaben - Lobt Gott, Ihr Christen Allzugleich
TTITLE15=Elmar Gunsch, Trad. - Knecht Ruprecht
TTITLE16=Jerry Rix - Was Soll Das Bedeuten
TTITLE17=Margit Anderson - Am Weihnachtsbaum Die Lichter Brennen
TTITLE18=Roland Steinel - Kommet Ihr Hirten
TTITLE19=Elmar Gunsch, Trad. - Heilige Weihnacht Ist Es Wieder
TTITLE20=Marcelino Benitez - Jingle Bells
TTITLE21=Chor Der Staatsoper Wien - Adeste Fidelis
TTITLE22=Münchener Symphonie-Orchester - Weihnachtskonzert
TTITLE23=Stuttgarter Hymnus-Chorknaben - Nun Singet Und Seid Froh
TTITLE24=Grosses Weihnachtsglockengeläute
EXTD=
EXTT0=
EXTT1=
EXTT2=
EXTT3=
EXTT4=
EXTT5=
EXTT6=
EXTT7=
EXTT8=
EXTT9=
EXTT10=
EXTT11=
EXTT12=
EXTT13=
EXTT14=
EXTT15=
EXTT16=
EXTT17=
EXTT18=
EXTT19=
EXTT20=
EXTT21=
EXTT22=
EXTT23=
EXTT24=
PLAYORDER=
